<?xml version="1.0" encoding="iso-8859-1"?>
<!-- Generator: Adobe Illustrator 19.0.0, SVG Export Plug-In . SVG Version: 6.00 Build 0)  -->
<svg version="1.1" id="Capa_1" xmlns="http://www.w3.org/2000/svg" xmlns:xlink="http://www.w3.org/1999/xlink" x="0px" y="0px"
	 viewBox="0 0 505.698 505.698" style="enable-background:new 0 0 505.698 505.698;" xml:space="preserve">
<rect x="38.597" y="173.292" style="fill:#2EA0DA;" width="428.505" height="289.083"/>
<path style="fill:#183651;" d="M467.102,470.252H38.597c-4.726,0-7.877-3.151-7.877-7.877V173.292c0-4.726,3.151-7.877,7.877-7.877
	h428.505c4.726,0,7.877,3.151,7.877,7.877v289.083C474.978,467.102,471.828,470.252,467.102,470.252z M46.474,454.498h412.751
	V181.169H46.474V454.498z"/>
<rect x="70.105" y="204.8" style="fill:#FFFFFF;" width="365.489" height="257.575"/>
<g>
	<rect x="315.077" y="395.422" style="fill:#183651;" width="15.754" height="15.754"/>
	<rect x="354.462" y="395.422" style="fill:#183651;" width="15.754" height="15.754"/>
	<rect x="394.634" y="395.422" style="fill:#183651;" width="15.754" height="15.754"/>
</g>
<path style="fill:#FFFFFF;" d="M334.769,444.258v18.117H170.142v-18.117H8.665c0,29.145,23.631,52.775,52.775,52.775h383.606
	c29.145,0,52.775-23.631,52.775-52.775H334.769z"/>
<path style="fill:#183651;" d="M444.258,504.911H61.44c-33.083,0-60.652-26.782-60.652-60.652c0-4.726,3.151-7.877,7.877-7.877
	h162.265c4.726,0,7.877,3.151,7.877,7.877v10.24H327.68v-10.24c0-4.726,3.151-7.877,7.877-7.877h162.265
	c4.726,0,7.877,3.151,7.877,7.877C504.911,478.129,478.129,504.911,444.258,504.911z M17.329,452.135
	c3.938,21.268,22.055,37.022,44.111,37.022h383.606c22.055,0,40.172-15.754,44.111-37.022H342.646v10.24
	c0,4.726-3.151,7.877-7.877,7.877H170.142c-4.726,0-7.877-3.151-7.877-7.877v-10.24H17.329z"/>
<path style="fill:#FFFFFF;" d="M99.249,224.492h34.658l3.151-25.994c8.665-2.363,16.542-5.514,23.631-9.452l20.48,15.754
	l24.418-24.418l-15.754-20.48c3.938-7.089,7.877-14.966,9.452-23.631l25.994-3.151V98.462l-25.994-3.151
	c-2.363-8.665-5.514-16.542-9.452-23.631l15.754-20.48l-24.418-22.843l-20.48,15.754c-7.089-3.938-14.966-7.877-23.631-9.452
	l-3.151-25.994H99.249l-3.151,25.994c-7.877,1.575-15.754,4.726-22.843,9.452l-20.48-15.754L28.357,52.775l15.754,20.48
	c-3.938,7.089-7.877,14.966-9.452,23.631L8.665,99.249v34.658l25.994,3.151c2.363,8.665,5.514,16.542,9.452,23.631l-15.754,20.48
	l24.418,24.418l20.48-15.754c7.089,3.938,14.966,7.877,23.631,9.452L99.249,224.492z"/>
<path style="fill:#183651;" d="M133.908,232.369H99.249c-3.938,0-7.089-3.151-7.877-7.089l-2.363-20.48
	c-5.514-1.575-10.24-3.938-15.754-6.302l-16.542,12.603c-3.151,2.363-7.877,2.363-10.24-0.788l-24.418-24.418
	c-3.151-3.151-3.151-7.089-0.788-10.24l12.603-16.542c-2.363-4.726-4.726-10.24-6.302-15.754l-20.48-2.363
	C3.151,140.209,0,137.058,0,133.12V99.249c0-3.938,3.151-7.089,7.089-7.877l21.268-2.363c1.575-5.514,3.938-10.24,6.302-15.754
	L22.055,57.502c-2.363-3.151-2.363-7.877,0.788-10.24l24.418-24.418c3.151-3.151,7.089-3.151,10.24-0.788l16.542,12.603
	c4.726-2.363,10.24-4.726,15.754-6.302l1.575-20.48c0.788-3.938,3.938-7.089,7.877-7.089h34.658c3.938,0,7.089,3.151,7.877,7.089
	l2.363,20.48c5.514,1.575,10.24,3.938,15.754,6.302l16.542-12.603c3.151-2.363,7.877-2.363,10.24,0.788l24.418,24.418
	c3.151,3.151,3.151,7.089,0.788,10.24l-12.603,16.542c2.363,4.726,4.726,10.24,6.302,15.754l20.48,2.363
	c3.938,0.788,7.089,3.938,7.089,7.877v34.658c0,3.938-3.151,7.089-7.089,7.877l-20.48,2.363c-1.575,5.514-3.938,10.24-6.302,15.754
	l12.603,16.542c2.363,3.151,2.363,7.877-0.788,10.24l-24.418,24.418c-3.151,3.151-7.089,3.151-10.24,0.788l-16.542-12.603
	c-4.726,2.363-10.24,4.726-15.754,6.302l-2.363,20.48C141.785,230.006,137.846,232.369,133.908,232.369z M106.338,216.615h20.48
	l2.363-18.905c0.788-3.151,2.363-6.302,6.302-7.089c7.089-1.575,14.966-4.726,21.268-8.665c3.151-1.575,6.302-1.575,8.665,0.788
	l14.966,11.815l14.966-14.966l-11.815-14.966c-2.363-2.363-2.363-6.302-0.788-8.665c3.938-6.302,7.089-13.391,8.665-21.268
	c0.788-3.151,3.151-5.514,6.302-6.302l18.905-2.363v-20.48l-18.905-2.363c-3.151-0.788-6.302-2.363-6.302-6.302
	c-1.575-7.089-4.726-14.966-8.665-21.268c-1.575-3.151-1.575-6.302,0.788-8.665l11.815-14.966l-14.966-14.966l-14.966,11.815
	c-2.363,2.363-6.302,2.363-8.665,0.788c-6.302-3.938-13.391-7.089-21.268-8.665c-3.151-0.788-5.514-3.151-6.302-7.089l-2.363-18.905
	h-20.48l-2.363,18.905c0,3.151-2.363,6.302-6.302,7.089c-7.089,3.151-14.178,5.514-20.48,9.452c-3.151,2.363-6.302,1.575-9.452,0
	L53.563,38.597L38.597,53.563l11.815,14.178c1.575,3.151,2.363,6.302,0,9.452c-3.938,6.302-6.302,13.391-8.665,21.268
	c-0.788,3.151-3.151,5.514-6.302,6.302l-18.905,2.363v20.48l18.905,2.363c3.151,0.788,6.302,2.363,6.302,6.302
	c1.575,7.089,4.726,14.966,8.665,21.268c1.575,3.151,1.575,6.302-0.788,8.665l-11.815,14.966l14.966,14.966l14.966-12.603
	c2.363-2.363,6.302-2.363,8.665-0.788c6.302,3.938,13.391,7.089,21.268,8.665c3.151,0.788,5.514,3.151,6.302,7.089L106.338,216.615z
	"/>
<circle style="fill:#F06151;" cx="116.578" cy="116.578" r="62.228"/>
<circle style="fill:#FFFFFF;" cx="116.578" cy="116.578" r="30.72"/>
<path style="fill:#183651;" d="M116.578,155.175c-21.268,0-38.597-17.329-38.597-38.597s17.329-38.597,38.597-38.597
	s38.597,17.329,38.597,38.597S137.846,155.175,116.578,155.175z M116.578,94.523c-12.603,0-22.843,10.24-22.843,22.843
	s10.24,22.843,22.843,22.843c12.603,0,22.843-10.24,22.843-22.843S129.182,94.523,116.578,94.523z"/>
<path style="fill:#FFFFFF;" d="M350.523,315.077h40.172l3.938-29.932c9.452-2.363,18.905-6.302,27.569-11.028l23.631,18.905
	l28.357-28.357l-18.905-23.631c4.726-8.665,8.665-17.329,11.028-27.569l29.932-3.938v-40.172l-29.932-3.938
	c-2.363-9.452-6.302-18.905-11.028-27.569l18.905-23.631l-28.357-28.357l-23.631,18.905c-8.665-4.726-17.329-8.665-27.569-11.028
	l-3.938-29.932h-40.172l-3.938,29.932c-9.452,2.363-18.905,6.302-27.569,11.028l-23.631-18.905l-28.357,28.357l18.905,23.631
	c-4.726,8.665-8.665,17.329-11.028,27.569l-29.932,3.938v40.172l29.932,3.938c2.363,9.452,6.302,18.905,11.028,27.569
	l-18.905,23.631l28.357,28.357l23.631-18.905c8.665,4.726,17.329,8.665,27.569,11.028L350.523,315.077z"/>
<path style="fill:#183651;" d="M391.483,322.954h-40.172c-3.938,0-7.089-3.151-7.877-7.089l-3.151-24.418
	c-7.089-2.363-13.391-4.726-19.692-7.877l-19.692,14.966c-3.151,2.363-7.877,2.363-10.24-0.788l-28.357-28.357
	c-3.151-3.151-3.151-7.089-0.788-10.24l14.966-19.692c-3.151-6.302-6.302-12.603-7.877-19.692l-24.419-2.363
	c-3.938-0.788-7.089-3.938-7.089-7.877v-40.172c0-3.938,3.151-7.089,7.089-7.877l24.418-3.151
	c2.363-7.089,4.726-13.391,7.877-19.692l-14.966-19.692c-2.363-3.151-2.363-7.877,0.788-10.24l28.357-28.357
	c3.151-3.151,7.089-3.151,10.24-0.788l19.692,14.966c6.302-3.151,12.603-6.302,19.692-7.877l3.151-24.418
	c0.788-3.938,3.938-7.089,7.877-7.089h40.172c3.938,0,7.089,3.151,7.877,7.089l3.151,24.418c6.302,2.363,13.391,4.726,19.692,7.877
	l19.692-14.966c3.151-2.363,7.877-2.363,10.24,0.788l28.357,28.357c3.151,3.151,3.151,7.089,0.788,10.24l-15.754,19.692
	c3.151,6.302,6.302,12.603,7.877,19.692l24.418,3.151c3.938,0.788,7.089,3.938,7.089,7.877v40.172c0,3.938-3.151,7.089-7.089,7.877
	l-24.418,3.151c-2.363,7.089-4.726,13.391-7.877,19.692l14.966,19.692c2.363,3.151,2.363,7.877-0.788,10.24l-28.357,28.357
	c-3.151,3.151-7.089,3.151-10.24,0.788l-19.692-14.966c-6.302,3.151-12.603,6.302-19.692,7.877l-3.151,24.418
	C398.572,320.591,395.422,322.954,391.483,322.954z M357.612,307.2h26.782l3.151-22.843c0.788-3.151,2.363-6.302,6.302-7.089
	c8.665-2.363,17.329-5.514,25.206-10.24c3.151-1.575,6.302-1.575,8.665,0.788l18.117,14.178l18.905-18.905l-14.178-18.117
	c-2.363-2.363-2.363-6.302-0.788-8.665c4.726-7.877,7.877-16.542,10.24-25.206c0.788-3.151,3.151-5.514,6.302-6.302l22.843-3.151
	v-26.782l-22.843-3.151c-3.151-0.788-6.302-2.363-6.302-6.302c-2.363-8.665-5.514-17.329-10.24-25.206
	c-1.575-3.151-1.575-6.302,0.788-8.665l14.178-18.117l-18.905-18.905l-18.117,14.178c-2.363,2.363-6.302,2.363-8.665,0.788
	c-7.877-4.726-16.542-7.877-25.206-10.24c-3.151-0.788-5.514-3.151-6.302-7.089l-3.151-22.843h-26.782l-3.151,22.843
	c-0.788,3.151-2.363,6.302-6.302,7.089c-8.665,2.363-17.329,5.514-25.206,10.24c-3.151,1.575-6.302,1.575-8.665-0.788
	l-18.117-14.178l-18.117,20.48l14.178,18.117c2.363,2.363,2.363,6.302,0.788,8.665c-4.726,7.877-7.877,16.542-10.24,25.206
	c-0.788,3.151-3.151,5.514-6.302,6.302l-22.843,3.151v26.782l22.843,3.151c3.151,0.788,6.302,2.363,6.302,6.302
	c2.363,8.665,5.514,17.329,10.24,25.206c1.575,3.151,1.575,6.302-0.788,8.665l-14.178,18.117l18.905,18.905l18.117-14.178
	c2.363-2.363,6.302-2.363,8.665-0.788c7.877,4.726,16.542,7.877,25.206,10.24c3.151,0.788,5.514,3.151,6.302,7.089L357.612,307.2z"
	/>
<circle style="fill:#FBBD5E;" cx="371.003" cy="189.046" r="72.468"/>
<circle style="fill:#FFFFFF;" cx="371.003" cy="189.046" r="35.446"/>
<path style="fill:#183651;" d="M371.003,232.369c-23.631,0-43.323-19.692-43.323-43.323s19.692-43.323,43.323-43.323
	s43.323,19.692,43.323,43.323S394.634,232.369,371.003,232.369z M371.003,161.477c-14.966,0-27.569,12.603-27.569,27.569
	s12.603,27.569,27.569,27.569c14.966,0,27.569-12.603,27.569-27.569S385.969,161.477,371.003,161.477z"/>
<g>
	<rect x="100.825" y="395.422" style="fill:#E0E4E8;" width="165.415" height="15.754"/>
	<rect x="100.825" y="356.037" style="fill:#E0E4E8;" width="165.415" height="15.754"/>
	<rect x="100.825" y="316.652" style="fill:#E0E4E8;" width="136.271" height="15.754"/>
</g>
<g>
</g>
<g>
</g>
<g>
</g>
<g>
</g>
<g>
</g>
<g>
</g>
<g>
</g>
<g>
</g>
<g>
</g>
<g>
</g>
<g>
</g>
<g>
</g>
<g>
</g>
<g>
</g>
<g>
</g>
</svg>
