<?xml version="1.0" standalone="no"?><!-- Generator: Gravit.io --><svg xmlns="http://www.w3.org/2000/svg" xmlns:xlink="http://www.w3.org/1999/xlink" style="isolation:isolate" viewBox="0 0 250 250" width="250" height="250"><defs><clipPath id="_clipPath_ONVNyInqQVPmETNXr2C2DMxd6koW14h2"><rect width="250" height="250"/></clipPath></defs><g clip-path="url(#_clipPath_ONVNyInqQVPmETNXr2C2DMxd6koW14h2)"><rect width="250" height="250" style="fill:rgb(233,79,55)" fill-opacity="0"/><defs><filter id="TtjLcqwJmoyWXH2U8RP5FybyYmDH3e1j" x="-200%" y="-200%" width="400%" height="400%" filterUnits="objectBoundingBox" color-interpolation-filters="sRGB"><feOffset xmlns="http://www.w3.org/2000/svg" in="SourceGraphic" dx="0" dy="3"/><feGaussianBlur xmlns="http://www.w3.org/2000/svg" stdDeviation="2.146804531419514" result="pf_100_offsetBlur"/><feComposite xmlns="http://www.w3.org/2000/svg" in="SourceGraphic" in2="pf_100_offsetBlur" result="pf_100_inverse" operator="out"/><feFlood xmlns="http://www.w3.org/2000/svg" flood-color="#FFFFFF" flood-opacity="0.5" result="pf_100_color"/><feComposite xmlns="http://www.w3.org/2000/svg" in="pf_100_color" in2="pf_100_inverse" operator="in" result="pf_100_shadow"/><feComposite xmlns="http://www.w3.org/2000/svg" in="pf_100_shadow" in2="SourceGraphic" operator="over" result="_out_Jdsl4yPtGPJk5VtAqfDsT9PpEcDvOA90"/><feOffset xmlns="http://www.w3.org/2000/svg" in="_out_Jdsl4yPtGPJk5VtAqfDsT9PpEcDvOA90" dx="0" dy="-3"/><feGaussianBlur xmlns="http://www.w3.org/2000/svg" stdDeviation="2.146804531419514" result="pf_101_offsetBlur"/><feComposite xmlns="http://www.w3.org/2000/svg" in="_out_Jdsl4yPtGPJk5VtAqfDsT9PpEcDvOA90" in2="pf_101_offsetBlur" result="pf_101_inverse" operator="out"/><feFlood xmlns="http://www.w3.org/2000/svg" flood-color="#000000" flood-opacity="0.5" result="pf_101_color"/><feComposite xmlns="http://www.w3.org/2000/svg" in="pf_101_color" in2="pf_101_inverse" operator="in" result="pf_101_shadow"/><feComposite xmlns="http://www.w3.org/2000/svg" in="pf_101_shadow" in2="_out_Jdsl4yPtGPJk5VtAqfDsT9PpEcDvOA90" operator="over" result="_out_sqj57WwJ6Ht7vg51GVInwt1hEG76JN2G"/><feMerge><feMergeNode in="_out_sqj57WwJ6Ht7vg51GVInwt1hEG76JN2G"/></feMerge></filter></defs><g filter="url(#TtjLcqwJmoyWXH2U8RP5FybyYmDH3e1j)"><path d="M 15 0 L 235 0 C 243.279 0 250 6.721 250 15 L 250 235 C 250 243.279 243.279 250 235 250 L 15 250 C 6.721 250 0 243.279 0 235 L 0 15 C 0 6.721 6.721 0 15 0 Z" style="stroke:none;fill:#E94F37;stroke-miterlimit:10;"/></g><g id="Group" filter="url(#T4pCj7DPT5q2w86TvW6UAPr4FxopRaUH)"><circle vector-effect="non-scaling-stroke" cx="147.07967570840773" cy="146.20121290613068" r="26.63098030437672" id="Ellipse" fill="rgb(255,255,255)"/><path d=" M 84.05 72.866 L 66.606 72.866 L 66.606 90.309 L 72.079 85.179 L 92.601 106.043 L 99.784 98.86 L 78.92 77.996 L 84.05 72.866 L 84.05 72.866 L 84.05 72.866 Z  M 110.045 95.782 L 127.488 95.782 L 127.488 78.338 L 122.358 83.469 L 101.836 62.605 L 94.653 69.787 L 115.517 90.651 L 110.045 95.782 L 110.045 95.782 Z  M 195.474 148.728 C 195.725 144.208 195.474 139.689 194.218 135.169 L 204.262 127.636 L 194.971 109.809 L 182.919 113.827 C 179.906 110.311 176.391 107.549 172.374 105.039 L 174.382 92.484 L 155.3 86.458 L 149.776 97.757 C 149.525 97.757 149.274 97.757 149.274 97.757 C 149.776 95.748 150.027 93.74 150.027 91.48 C 150.027 81.687 143.75 72.648 134.71 69.384 C 134.208 55.574 122.909 44.526 108.848 44.526 C 100.563 44.526 92.779 48.544 87.757 55.323 C 84.744 53.566 81.229 52.561 77.714 52.561 C 67.67 52.561 59.384 60.345 58.631 70.137 C 50.345 74.155 45.323 82.19 45.323 91.48 C 45.323 104.536 55.869 115.082 68.926 115.082 L 109.602 115.082 C 108.346 116.84 107.091 118.346 105.835 120.355 L 93.281 118.346 L 87.506 137.68 L 98.805 143.204 C 98.554 147.723 98.805 152.243 100.06 156.763 L 90.017 164.295 L 99.307 182.122 L 111.359 178.105 C 114.372 181.62 117.888 184.382 121.905 186.893 L 119.896 199.447 L 138.979 205.474 L 144.503 194.175 C 149.022 194.426 153.542 193.924 158.062 192.919 L 165.594 202.963 L 183.421 193.672 L 179.404 181.62 C 182.919 178.607 185.681 175.092 188.192 171.075 L 200.747 173.083 L 206.773 153.75 L 195.474 148.728 L 195.474 148.728 L 195.474 148.728 Z  M 193.758 166.551 L 183.007 164.915 L 182.072 166.317 C 179.735 170.524 176.697 174.264 172.957 177.302 L 171.788 178.237 L 175.294 188.521 L 165.712 193.429 L 159.167 184.548 L 157.531 185.015 C 152.857 186.184 148.182 186.651 143.274 186.184 L 141.638 185.95 L 136.964 196 L 126.68 192.728 L 128.316 181.977 L 126.914 181.275 C 122.707 178.938 119.201 175.9 115.929 172.16 L 114.994 170.992 L 104.71 174.497 L 99.802 164.915 L 108.683 158.371 L 108.216 156.734 C 107.047 152.06 106.58 147.386 107.047 142.477 L 107.281 140.841 L 97.231 135.933 L 100.503 125.649 L 111.254 127.285 L 111.955 125.883 C 113.825 122.845 115.929 119.806 118.5 117.469 L 127.615 117.469 C 136.029 117.469 143.274 112.794 147.014 105.783 C 148.182 105.783 149.351 105.783 150.52 106.016 L 152.156 106.25 L 157.064 96.434 L 167.348 99.706 L 165.945 110.223 L 167.348 110.925 C 171.555 113.262 175.061 116.3 178.333 120.04 L 179.268 121.208 L 189.551 117.703 L 194.46 127.285 L 185.578 133.83 L 186.046 135.466 C 187.214 140.14 187.682 144.815 187.214 149.723 L 186.98 151.359 L 196.797 156.267 L 193.758 166.551 Z " fill-rule="evenodd" id="Compound Shape" fill="rgb(255,255,255)" vector-effect="non-scaling-stroke" stroke-width="0.366" stroke="rgb(255,255,255)" stroke-linejoin="miter" stroke-linecap="butt" stroke-miterlimit="4"/></g><defs><filter id="T4pCj7DPT5q2w86TvW6UAPr4FxopRaUH" x="-200%" y="-200%" width="400%" height="400%" filterUnits="objectBoundingBox" color-interpolation-filters="sRGB"><feGaussianBlur xmlns="http://www.w3.org/2000/svg" in="SourceGraphic" stdDeviation="2.146804531419514"/><feOffset xmlns="http://www.w3.org/2000/svg" dx="-5" dy="5" result="pf_100_offsetBlur"/><feFlood xmlns="http://www.w3.org/2000/svg" flood-color="#000000" flood-opacity="0.5"/><feComposite xmlns="http://www.w3.org/2000/svg" in2="pf_100_offsetBlur" operator="in" result="pf_100_dropShadow"/><feBlend xmlns="http://www.w3.org/2000/svg" in="SourceGraphic" in2="pf_100_dropShadow" mode="normal"/></filter></defs></g></svg>